<svg width="24" height="24" viewBox="0 0 24 24" fill="none" xmlns="http://www.w3.org/2000/svg">
<path opacity="0.4" d="M12.93 4.79004H7.35C3.25 4.79004 2 6.04004 2 10.14V13.86C2 17.96 3.25 19.21 7.35 19.21H12.93C17.03 19.21 18.28 17.96 18.28 13.86V10.14C18.28 6.04004 17.03 4.79004 12.93 4.79004Z" fill="#0C0507"/>
<path d="M20.4192 9.00047C20.2792 8.99047 20.0992 8.98047 19.8992 8.98047C19.5092 8.98047 19.1992 9.29047 19.1992 9.68047V14.3305C19.1992 14.7205 19.5092 15.0305 19.8992 15.0305C20.0992 15.0305 20.2692 15.0205 20.4392 15.0105C21.9992 14.8305 21.9992 13.7305 21.9992 12.9305V11.0705C21.9992 10.2705 21.9992 9.17047 20.4192 9.00047Z" fill="#0C0507"/>
</svg>
